PathFileType	4	(X/Y/Z)	/Users/itak/Documents/Research/Walk-IL/dataset/trc/00414_00012.trc
DataRate	CameraRate	NumFrames	NumMarkers	Units	OrigDataRate	OrigDataStartFrame	OrigNumFrames
100.000000	100.000000	4	53	mm	100.000000	162	433
Frame#	Time	RPSI			LPSI			L3			STRN			T10			C7			CLAV			RBAK			LBAK			LSHO			LUPA			LAEL			LAOL			LWTS			LWPS			LFRA			LIFD			LHPS			LHTS			RSHO			RUPA			RAEL			RAOL			RWTS			RWPS			RFRA			RIFD			RHTS			RHPS			RBHD			LFHD			RFHD			LBHD			LHIP			RHIP			RASI			LASI			LKNE			LTHI			LANK			LTIP			LTOE			LMT1			LMT5			LHEE			RKNE			RTHI			RANK			RTIP			RTOE			RMT1			RMT5			RHEE			
		X1	Y1	Z1	X2	Y2	Z2	X3	Y3	Z3	X4	Y4	Z4	X5	Y5	Z5	X6	Y6	Z6	X7	Y7	Z7	X8	Y8	Z8	X9	Y9	Z9	X10	Y10	Z10	X11	Y11	Z11	X12	Y12	Z12	X13	Y13	Z13	X14	Y14	Z14	X15	Y15	Z15	X16	Y16	Z16	X17	Y17	Z17	X18	Y18	Z18	X19	Y19	Z19	X20	Y20	Z20	X21	Y21	Z21	X22	Y22	Z22	X23	Y23	Z23	X24	Y24	Z24	X25	Y25	Z25	X26	Y26	Z26	X27	Y27	Z27	X28	Y28	Z28	X29	Y29	Z29	X30	Y30	Z30	X31	Y31	Z31	X32	Y32	Z32	X33	Y33	Z33	X34	Y34	Z34	X35	Y35	Z35	X36	Y36	Z36	X37	Y37	Z37	X38	Y38	Z38	X39	Y39	Z39	X40	Y40	Z40	X41	Y41	Z41	X42	Y42	Z42	X43	Y43	Z43	X44	Y44	Z44	X45	Y45	Z45	X46	Y46	Z46	X47	Y47	Z47	X48	Y48	Z48	X49	Y49	Z49	X50	Y50	Z50	X51	Y51	Z51	X52	Y52	Z52	X53	Y53	Z53	

163	1.62	-769.7510375976562	971.8213500976562	-352.7828063964844	-748.2843017578125	963.64306640625	-484.476806640625	-755.1903076171875	1049.78857421875	-412.0656433105469	-523.1724243164062	1194.380859375	-351.7474975585938	-755.9664306640625	1150.603271484375	-420.4201049804688	-715.8541870117188	1398.490234375	-419.1167297363281	-571.2903442382812	1315.053466796875	-365.7265319824219	-777.8106079101562	1255.251708984375	-367.680419921875	-698.1538696289062	1361.109619140625	-521.9978637695312	-599.9890747070312	1373.049682617188	-541.6146850585938	-600.305908203125	1259.393798828125	-617.7916259765625	-572.3408203125	1065.137573242188	-647.1406860351562	-642.3721313476562	1040.439453125	-606.9907836914062	-468.3890075683594	864.3384399414062	-587.691650390625	-501.2541198730469	844.6179809570312	-660.4207153320312	-544.6307373046875	964.1259155273438	-656.4506225585938	-432.5202331542969	689.3628540039062	-595.0111083984375	-471.0646667480469	764.717041015625	-651.622314453125	-428.2107849121094	775.626953125	-605.00146484375	-708.2141723632812	1378.95947265625	-251.3565826416016	-742.06103515625	1315.446899414062	-201.1772003173828	-764.9041748046875	1056.341918945312	-165.063232421875	-745.199462890625	1043.48095703125	-258.246826171875	-627.9270629882812	848.8890380859375	-125.8377380371094	-689.0733642578125	836.4209594726562	-87.84351348876953	-746.5418090820312	991.1590576171875	-137.7196655273438	-623.9088134765625	674.9078979492188	-112.1169662475586	-615.3494873046875	745.6378173828125	-94.26467895507812	-680.7539672851562	749.6118774414062	-79.51889801025391	-731.9263916015625	1566.93896484375	-329.1014099121094	-545.9095458984375	1604.114501953125	-385.2731628417969	-609.5577392578125	1592.165649414062	-280.136474609375	-661.2953491210938	1578.482788085938	-474.1653747558594	-636.2691650390625	956.5028076171875	-574.572021484375	-711.5711059570312	942.7952880859375	-223.6468505859375	-572.9679565429688	948.5905151367188	-249.6698150634766	-537.3078002929688	951.7785034179688	-509.0347595214844	-458.7461547851562	490.1239013671875	-563.197998046875	-503.6565551757812	618.0722045898438	-570.6372680664062	-759.4093017578125	163.6448669433594	-653.7599487304688	-605.021728515625	316.7131958007812	-622.5196533203125	-587.5914916992188	48.55935287475586	-588.0968017578125	-659.318359375	78.75439453125	-560.0405883789062	-653.6475219726562	94.94086456298828	-664.6106567382812	-800.4429321289062	174.0812225341797	-601.0722045898438	-630.3279418945312	452.4698791503906	-318.4435119628906	-620.8123779296875	707.7047729492188	-237.6236572265625	-665.3299560546875	48.37092590332031	-432.5881042480469	-613.1118774414062	330.7356567382812	-357.0932312011719	-480.9481201171875	38.80817794799805	-477.8614501953125	-552.1824951171875	45.07823944091797	-515.2955322265625	-583.869873046875	41.82046127319336	-419.1729431152344	-729.393310546875	40.44668960571289	-495.4194030761719	
164	1.63	-762.3714599609375	972.4014282226562	-352.9451599121094	-738.5993041992188	964.5673217773438	-484.2281494140625	-747.482421875	1050.486206054688	-411.5135192871094	-515.5476684570312	1194.904052734375	-346.6244812011719	-747.222900390625	1151.30419921875	-419.3016662597656	-707.0029907226562	1399.116577148438	-417.0318908691406	-563.244384765625	1315.63232421875	-361.5725708007812	-769.8051147460938	1256.049194335938	-366.2396850585938	-688.0038452148438	1361.648193359375	-519.5855712890625	-589.6172485351562	1373.404418945312	-537.9401245117188	-589.6883544921875	1260.052368164062	-614.3546142578125	-563.2612915039062	1065.753540039062	-644.2481689453125	-633.635986328125	1041.46923828125	-604.4981079101562	-463.2304382324219	862.094970703125	-585.9766845703125	-496.2149963378906	843.704345703125	-658.9680786132812	-537.10009765625	964.1158447265625	-654.1476440429688	-431.7693481445312	686.2051391601562	-594.51513671875	-468.073486328125	762.9912109375	-650.6464233398438	-425.1073608398438	772.5277099609375	-603.7532958984375	-701.5618286132812	1379.964111328125	-249.2704467773438	-735.9790649414062	1316.595825195312	-199.2489624023438	-758.1693725585938	1057.486083984375	-161.9938812255859	-737.39892578125	1044.146850585938	-255.1148376464844	-615.7354736328125	854.4907836914062	-119.6438827514648	-676.7288208007812	840.4775390625	-81.93321990966797	-738.3696899414062	992.9675903320312	-134.1066131591797	-605.7723999023438	681.0264892578125	-102.824592590332	-599.7232666015625	752.4515380859375	-86.11420440673828	-665.3948974609375	754.1771850585938	-72.04203033447266	-723.0369262695312	1568.110595703125	-327.1609802246094	-536.3330078125	1603.961181640625	-381.6186218261719	-600.9059448242188	1592.510009765625	-276.9386901855469	-651.1488647460938	1578.979370117188	-471.5235595703125	-624.68994140625	958.26171875	-571.8253173828125	-707.298828125	942.8135375976562	-222.8154602050781	-567.8356323242188	948.5115356445312	-245.4482727050781	-527.2337646484375	953.2972412109375	-503.9384460449219	-440.4992370605469	494.1640319824219	-554.2786254882812	-487.3280334472656	621.4602661132812	-564.0579223632812	-725.2296142578125	154.5464172363281	-649.174072265625	-578.7179565429688	314.486083984375	-615.8451538085938	-548.0555419921875	49.27344131469727	-580.9995727539062	-622.12451171875	74.86774444580078	-554.049072265625	-615.3488159179688	92.06439971923828	-658.33349609375	-767.8431396484375	162.2380981445312	-597.2614135742188	-630.6270141601562	452.1788330078125	-317.1378784179688	-618.3017578125	707.1997680664062	-235.8408813476562	-665.376220703125	48.35221099853516	-432.6663208007812	-613.3909912109375	330.5544738769531	-355.957275390625	-480.9384765625	38.77310943603516	-477.8708190917969	-551.9869995117188	45.21189117431641	-515.0104370117188	-583.9042358398438	41.77801895141602	-419.0947265625	-729.4594116210938	40.7186393737793	-495.7372131347656	
165	1.64	-754.9243774414062	972.8096923828125	-353.0580139160156	-728.8443603515625	965.2199096679688	-483.8753662109375	-739.732666015625	1050.978881835938	-410.9082336425781	-507.9432067871094	1195.161254882812	-341.5153503417969	-738.5280151367188	1151.81494140625	-418.0851135253906	-698.099609375	1399.54833984375	-414.8528137207031	-555.2307739257812	1315.9365234375	-357.3775939941406	-761.8388671875	1256.657836914062	-364.7344360351562	-677.815673828125	1361.976440429688	-517.0744018554688	-579.2266235351562	1373.518432617188	-534.1710205078125	-579.0736083984375	1260.463989257812	-610.8095092773438	-554.1687622070312	1066.126098632812	-641.2943725585938	-625.0054321289062	1042.286010742188	-601.9954833984375	-458.2381591796875	859.705078125	-584.113037109375	-491.1902160644531	842.6744384765625	-657.4127807617188	-529.5731201171875	963.9134521484375	-651.7557373046875	-431.1977844238281	683.0387573242188	-593.7783813476562	-465.18798828125	761.1607666015625	-649.53173828125	-422.1551208496094	769.3041381835938	-602.294189453125	-694.8667602539062	1380.699462890625	-247.1042938232422	-729.890625	1317.4794921875	-197.2550506591797	-751.7224731445312	1058.381591796875	-158.9250030517578	-729.8253784179688	1044.56982421875	-251.9773254394531	-603.86083984375	860.1468505859375	-113.3573379516602	-664.6962280273438	844.4801025390625	-75.99410247802734	-730.5250244140625	994.5750732421875	-130.4816284179688	-587.758056640625	687.4781494140625	-93.63944244384766	-584.3716430664062	759.4398193359375	-77.96736907958984	-650.2450561523438	758.804443359375	-64.62992095947266	-714.1177368164062	1569.079833984375	-325.1872253417969	-526.7440185546875	1603.565185546875	-377.9093017578125	-592.2650146484375	1592.676879882812	-273.7569274902344	-640.9680786132812	1579.198974609375	-468.8270263671875	-613.2798461914062	959.7024536132812	-569.0160522460938	-702.845947265625	942.7391967773438	-222.0213165283203	-562.65087890625	948.2769165039062	-241.4095764160156	-517.2080078125	954.5438842773438	-498.9452819824219	-422.9789733886719	497.8153381347656	-545.095947265625	-471.4725646972656	624.5426635742188	-557.2063598632812	-690.341552734375	144.9102783203125	-643.5548095703125	-552.3814697265625	311.7471313476562	-608.5596313476562	-508.7434692382812	49.98652648925781	-571.8724365234375	-584.7922973632812	71.13525390625	-546.32666015625	-576.874755859375	88.64939117431641	-650.4205322265625	-734.4277954101562	150.0886688232422	-592.5726318359375	-630.666748046875	451.874267578125	-315.8795471191406	-615.6471557617188	706.6910400390625	-234.2127838134766	-665.4201049804688	48.33404922485352	-432.7890625	-613.5460815429688	330.3239440917969	-354.8655090332031	-480.8475341796875	38.72528457641602	-477.8497009277344	-551.7161254882812	45.32860946655273	-514.709716796875	-583.9199829101562	41.74502563476562	-419.0377502441406	-729.4719848632812	40.98409271240234	-496.1153564453125	
166	1.65	-747.4056396484375	973.0098266601562	-353.1246032714844	-718.999267578125	965.559814453125	-483.4263610839844	-731.9031982421875	1051.244750976562	-410.2519226074219	-500.3623352050781	1195.134643554688	-336.4372863769531	-729.903564453125	1152.129272460938	-416.7700805664062	-689.1372680664062	1399.772827148438	-412.5778198242188	-547.2434692382812	1315.95068359375	-353.1507568359375	-753.9031372070312	1257.065551757812	-363.1713562011719	-667.5921630859375	1362.087646484375	-514.4644165039062	-568.8212280273438	1373.381225585938	-530.3148193359375	-568.4673461914062	1260.608154296875	-607.1593017578125	-545.0762939453125	1066.236206054688	-638.265869140625	-616.5029296875	1042.874633789062	-599.466064453125	-453.3808288574219	857.1752319335938	-582.087890625	-486.1594543457031	841.521484375	-655.7417602539062	-522.0452270507812	963.5068359375	-649.2637939453125	-430.731689453125	679.872802734375	-592.8140869140625	-462.3561706542969	759.2354736328125	-648.278564453125	-419.3394775390625	765.9663696289062	-600.6326904296875	-688.1193237304688	1381.142700195312	-244.8524017333984	-723.7892456054688	1318.0673828125	-195.1944122314453	-745.501708984375	1058.999389648438	-155.8315887451172	-722.4799194335938	1044.715942382812	-248.8064422607422	-592.3228759765625	865.7880249023438	-107.0408782958984	-652.9682006835938	848.388916015625	-70.03955841064453	-722.9755859375	995.9419555664062	-126.8239135742188	-569.9188232421875	694.223388671875	-84.57044982910156	-569.3331298828125	766.5427856445312	-69.87018585205078	-635.3248291015625	763.4597778320312	-57.27732467651367	-705.1710205078125	1569.817626953125	-323.16357421875	-517.1474609375	1602.926513671875	-374.1392517089844	-583.6386108398438	1592.653930664062	-270.5867919921875	-630.7525634765625	1579.131469726562	-466.0643310546875	-601.9810180664062	960.7612915039062	-566.1498413085938	-698.1722412109375	942.5478515625	-221.2442626953125	-557.4003295898438	947.8819580078125	-237.5243682861328	-507.2078857421875	955.4786376953125	-494.0364990234375	-406.1986389160156	501.0143432617188	-535.74267578125	-456.1315307617188	627.2406005859375	-550.1295166015625	-654.7949829101562	134.870849609375	-636.8218383789062	-526.04931640625	308.5443115234375	-600.6484985351562	-469.7715454101562	50.75050735473633	-560.7262573242188	-547.441650390625	67.62520599365234	-536.8338012695312	-538.2783203125	84.841064453125	-640.84521484375	-700.2899169921875	137.7820281982422	-586.8948974609375	-630.373046875	451.5387573242188	-314.6627502441406	-612.7960205078125	706.1493530273438	-232.6985931396484	-665.4595947265625	48.31564712524414	-432.9565734863281	-613.5526733398438	330.0246887207031	-353.8362121582031	-480.6705017089844	38.65352249145508	-477.8018493652344	-551.3837890625	45.41683578491211	-514.4169311523438	-583.9144897460938	41.72259140014648	-419.0071411132812	-729.4285888671875	41.2312126159668	-496.5444641113281	
